<svg width="50" height="41" viewBox="0 0 50 41" fill="none" xmlns="http://www.w3.org/2000/svg">
<path d="M37.0472 10.1553L36.6688 10.5047C35.6038 11.1523 34.4695 11.6394 33.2423 11.88C32.9968 11.9282 32.7216 11.8373 32.4632 11.7908C32.4356 11.7861 32.4292 11.6629 32.427 11.6535C31.5524 11.5775 30.649 11.4172 29.7521 11.4453C28.8685 11.473 27.9922 11.7013 27.1094 11.8211C26.8996 11.8497 26.6416 11.8638 26.4692 11.7712C25.9205 11.4726 25.4024 11.1211 24.8352 10.814C24.9814 10.9582 25.1461 11.0887 25.2712 11.2491C25.8732 12.0225 26.6958 12.1223 27.6121 12.1074C28.704 12.0893 29.7961 12.1356 30.8825 12.246C31.6642 12.3258 32.2202 12.7929 32.4816 13.5684C32.8656 14.7086 32.1377 15.9572 30.9337 16.1547C30.3949 16.243 29.8454 16.2669 29.2176 16.3283L29.5397 16.5617C28.6367 16.943 28.0876 17.835 27.1017 18.0056C26.2262 18.1571 25.3387 18.2492 24.4654 18.4036C23.7727 18.5256 23.0895 18.7022 22.4015 18.8554C22.1375 18.9151 21.8756 18.9833 21.5153 19.0755L22.0644 17.9408L21.9741 17.8904C21.7961 18.2245 21.6056 18.5525 21.4444 18.8942C21.3093 19.18 21.1747 19.4223 20.7938 19.4219C20.7078 19.4219 20.6351 19.616 20.5358 19.6944C20.0447 20.0822 19.5468 20.4623 19.0519 20.8424C19.0519 20.8424 19.0218 20.8129 19.027 20.7967C19.3387 19.8676 19.0175 19.2098 18.21 18.6779C17.7486 18.3738 17.3603 17.9527 16.9764 17.5475C16.8629 17.4276 16.7936 17.1508 16.8568 17.0172C16.9084 16.9093 17.1892 16.8692 17.3685 16.8675C18.2147 16.8607 19.0605 16.8773 19.9054 16.8321L17.8574 16.7374L17.8677 16.6798L22.024 15.0691C20.476 15.1083 19.9656 14.3597 19.1727 13.3743L20.9305 13.033L20.9137 12.9149L17.9683 13.2024C17.7671 13.222 17.5663 13.245 17.3664 13.263C16.7033 13.3244 16.6827 13.3099 16.5417 12.6201C16.3189 14.0163 15.1227 14.1643 14.1806 14.6118C13.9484 14.7218 13.693 14.788 13.4428 14.8554C12.7483 15.0431 12.1068 15.3088 11.6553 15.9376C11.7659 15.4766 11.8766 15.0153 11.9872 14.5538L11.8922 14.5307C11.7525 15.0081 11.6016 15.4833 11.4751 15.964C11.1952 17.0305 10.4668 17.7885 9.66919 18.465C9.46882 18.6357 9.02422 18.5346 8.69098 18.5316C8.38096 18.5286 8.06922 18.4523 7.76264 18.4736C6.51224 18.5589 5.38955 17.4417 5.4863 16.1321C5.64152 16.3198 5.77783 16.4845 5.86769 16.5937C5.81523 16.1671 5.70645 15.7021 5.7258 15.2431C5.73397 15.0396 5.96358 14.7278 6.15578 14.6672C8.09072 14.0598 9.72466 12.9494 11.2984 11.6467C11.31 11.7614 11.3225 11.8348 11.3229 11.9081C11.3233 11.9815 11.3109 12.0438 11.3939 12.1321C11.4528 11.8693 11.5491 11.6087 11.5628 11.3438C11.5882 10.8554 11.8144 10.5209 12.262 10.3567C12.8726 10.1332 13.3267 9.72962 13.6771 9.20493C14.0847 8.59578 14.6708 8.32234 15.3936 8.23788L15.6911 9.06459C15.7367 8.99804 15.7608 8.97927 15.7569 8.9669C15.4762 8.14105 15.4895 8.12015 16.3654 8.0327C17.0103 7.96786 17.6588 7.84799 18.3046 7.85311C19.2437 7.85993 19.7868 7.29856 20.2782 6.64419C20.556 6.27435 20.903 6.24535 21.1812 6.61903C21.2552 6.71885 21.336 6.81312 21.3751 6.86175C23.562 5.11833 25.9033 4.48316 28.5894 5.47836L28.1951 5.00828C28.6913 4.85983 29.1351 4.74721 29.5642 4.59322C29.9422 4.45757 30.3296 4.31765 30.6671 4.10735C31.4501 3.61934 31.9141 2.95559 31.7081 1.90877L32.7057 2.95772C33.2285 2.62969 33.6086 2.83999 33.643 3.49393C33.1176 3.5545 32.9912 3.93544 32.9981 4.38036C33.0032 4.76428 32.9951 5.16568 33.0987 5.52913C33.2956 6.21847 33.0776 6.78368 32.6442 7.27382C32.3002 7.66499 31.8767 7.9909 31.4733 8.35946C32.4421 7.96829 32.9877 7.22178 33.3223 6.29483C33.3653 6.17624 33.2982 6.01798 33.2793 5.87849C33.2208 5.42547 33.1197 4.97287 33.1124 4.51899C33.1021 3.83647 33.4319 3.61209 34.0214 3.91965C34.3044 4.06682 34.4235 3.9798 34.586 3.81258C34.6806 4.13934 34.7752 4.4661 34.8405 4.69261L34.9665 3.41587L34.5925 3.82197L34.2889 3.8514C34.0421 3.36937 34.3392 3.04347 34.6372 2.7423C34.964 2.41512 35.1996 2.06319 35.228 1.58799C35.2365 1.53513 35.2562 1.48467 35.2859 1.43996C35.3155 1.39524 35.3544 1.35729 35.4 1.32863C35.7869 1.11534 36.1851 0.920395 36.579 0.719904C36.5523 0.701988 36.4831 0.656771 36.3821 0.591931C37.758 0.0228786 38.9731 0.286077 40.1315 1.17975C40.1315 1.03131 40.1315 0.94855 40.1315 0.844039C40.7989 1.35849 41.179 1.92285 41.3316 2.62329L41.0354 2.49532L41.0977 3.12579L41.1837 2.78197L41.3157 2.74614L41.787 4.21229C41.5423 4.20845 41.3213 4.14872 41.1613 4.22124C41.0491 4.27243 41.0199 4.50363 40.9463 4.66573C40.7623 4.64057 40.7623 4.64057 40.4188 4.20546C40.4067 4.4661 40.4725 4.85087 40.3568 5.17166C40.0988 5.88404 39.966 5.92883 39.1782 5.74412C38.882 5.67459 38.667 5.67203 38.6094 5.92968L39.6057 5.87636C39.3709 6.5239 38.9964 6.92488 38.4722 7.21965C37.9734 7.50076 37.4974 7.82325 37.0197 8.13977C36.729 8.33216 36.4577 8.36501 36.1331 8.19864C35.3441 7.79553 34.948 7.14627 34.8302 6.29696C34.804 6.10585 34.7477 5.91859 34.7055 5.72962L34.6015 5.74838C34.6875 6.26881 34.7735 6.7888 34.8655 7.34122L33.7187 7.17528C34.1999 7.45768 34.8367 7.4035 35.1781 8.00455L33.7316 7.86293C33.7282 7.88852 33.7243 7.91411 33.7209 7.93971C34.1706 8.02502 34.6238 8.10138 35.0697 8.19565C35.6287 8.31381 36.2092 8.38633 36.7333 8.59578C37.0567 8.72375 37.313 9.05307 37.5503 9.33205C37.6118 9.40372 37.531 9.64985 37.4497 9.77356C37.3534 9.92456 37.1861 10.0304 37.0472 10.1553ZM23.5401 9.28684L24.1631 9.97575C24.0496 9.71085 23.9082 9.48264 24.1842 9.21261C24.2431 9.15502 24.118 8.91401 24.0776 8.75489L23.9731 8.78134C24.0032 8.90931 24.0337 9.03728 24.0703 9.19171L23.5401 9.28684ZM23.8355 14.1413L23.8819 14.2658L26.2718 13.6183C26.2671 13.5957 26.2619 13.5756 26.2567 13.5509L23.8355 14.1413ZM23.1806 7.32842L23.0645 7.45299L23.946 8.13551L24.0144 8.05573L23.1806 7.32842ZM27.8408 9.74668L27.8099 9.82261L28.9923 10.3575L29.0465 10.2274L27.8408 9.74668Z" fill="#FF0037"/>
<path d="M17.9785 20.1458C17.9077 20.6732 17.8787 21.2552 17.7297 21.7996C17.6781 21.9896 17.3303 22.2126 17.1178 22.2126C15.9553 22.2126 15.7522 22.1304 15.2879 21.055C15.1838 20.814 14.8799 20.65 14.8215 20.4099C14.6392 19.6617 14.5257 18.8951 14.3973 18.1334C14.3704 17.9734 14.4003 17.804 14.3909 17.6418C14.3721 17.298 14.5381 17.0772 14.827 16.9713C15.0891 16.8764 15.3581 16.804 15.6314 16.7549C16.0129 16.6839 16.3023 16.775 16.6027 17.1152C17.0632 17.6368 17.6307 18.0575 18.1689 18.5009C18.605 18.8585 18.6105 19.8418 18.1518 20.1632C18.1104 20.19 18.0259 20.1511 17.9785 20.1458ZM14.7779 17.6485H14.7084L14.8577 19.2397L14.9269 19.2335L14.7779 17.6485Z" fill="#FF0037"/>
<path d="M30.762 2.46569L31.5113 2.74503C31.3608 3.51979 30.8825 4.01844 30.2372 4.28808C29.3791 4.64637 28.4893 4.91417 27.619 5.23829C27.2744 5.36665 26.9991 5.27661 26.783 4.98758C26.6785 4.84907 26.6282 4.66069 26.585 4.56557C24.9903 4.36519 23.6138 3.72017 22.2982 2.80459C22.3423 2.74971 22.3894 2.6979 22.4394 2.64945C22.475 2.61805 22.524 2.60328 22.6209 2.54972C21.5962 2.82675 20.6421 3.10747 19.6775 3.33464C18.3928 3.64029 17.0979 3.90116 15.811 4.19066C15.4473 4.27238 15.1213 4.37535 15.0227 4.88924C14.9804 5.10994 14.7106 5.30247 14.5106 5.45668C14.1747 5.70985 13.8264 5.9429 13.4673 6.1548C13.3726 6.21205 13.236 6.18758 13.1189 6.20097C13.1425 6.06246 13.1277 5.88977 13.1975 5.78542C13.3413 5.57119 13.5303 5.3925 13.6745 5.16996C13.0766 5.26923 12.5843 5.51625 12.282 6.11417C12.2084 6.25961 12.0337 6.34502 11.9056 6.45676L11.8134 6.3755C11.8235 6.24391 11.8054 6.09847 11.8498 5.9835C11.9703 5.66722 11.9864 5.38881 11.9039 5.0319C11.8464 4.78304 12.1052 4.44737 12.2236 4.1491L11.6455 4.26869C11.7766 3.53318 12.4697 2.82121 13.0301 2.83737C13.1633 2.8406 13.2935 2.9962 13.4107 3.07284C13.4627 3.04468 13.5908 2.9094 13.6957 2.92833C14.7508 3.1204 15.6609 2.66515 16.5934 2.23575C17.9631 1.60505 19.351 1.02098 20.7377 0.435061C21.3539 0.175115 21.9523 0.312708 22.5836 0.497394C23.3237 0.713939 24.106 0.805819 24.8753 0.845065C25.8221 0.891236 26.7081 1.12487 27.6241 1.55565L27.3365 1.69416C27.3852 1.71494 27.411 1.73802 27.4291 1.73202C28.6555 1.3451 29.7487 1.66184 30.7565 2.45599L30.762 2.46569Z" fill="#FF0037"/>
<path d="M34.9939 13.0332C35.1715 13.6379 35.3621 14.2377 35.5656 14.8327C36.0898 16.3707 36.8435 17.6988 38.2927 18.3981C38.4943 18.4964 38.6641 18.6816 38.8484 18.8267L38.7976 18.9038L37.3975 18.0004C37.5403 19.242 38.1157 20.2214 38.7875 21.1508C39.5403 22.1932 40.3012 23.229 41.0375 24.2854C41.3625 24.7511 41.2706 25.2956 41.0952 25.7846C40.9742 26.1272 40.7484 26.2331 40.4827 26.2617L41.4706 26.2771C41.6803 26.0377 41.8509 25.8419 41.9811 25.6929L43.336 25.737C43.6908 26.1338 44.107 26.0655 44.4856 26.323C44.4856 26.323 45.7034 26.2789 45.8969 25.8569C45.8379 25.8179 45.7769 25.7826 45.7142 25.7511C45.1094 25.5011 44.4888 25.2943 43.907 24.9949C43.3251 24.6955 42.669 24.4601 42.3747 23.7087C42.0234 22.8163 41.6488 21.9344 41.2658 21.0578C40.9932 20.4343 40.7613 19.7667 40.3811 19.2284C39.8448 18.4686 39.446 17.6736 39.1879 16.7543C38.9407 15.8724 38.7347 14.9495 38.1064 14.2564C38.073 14.2198 38.0379 14.151 38.0467 14.1078C38.1947 13.3736 38.0899 12.6629 37.9314 11.9446C37.7758 11.2391 37.1379 10.7421 37.2149 9.93964C37.2149 9.92289 37.1745 9.90173 37.1564 9.88232L36.8016 10.2434C36.5193 10.4639 36.2644 10.7386 35.9548 10.8934C35.1914 11.2761 34.4051 11.6042 33.5664 11.9825C33.9213 12.1831 34.2402 12.4071 34.5878 12.546C34.8269 12.6465 34.9233 12.7938 34.9939 13.0332Z" fill="#FF0037"/>
<path d="M2.5954 18.7486L2.05518 18.3784C2.14965 18.1644 2.21894 17.9054 2.36187 17.7018C2.9738 16.8287 3.68214 16.0724 4.82218 16.0474C5.01598 16.0434 5.26308 16.1971 5.40358 16.3538C5.65117 16.6307 5.83625 16.9674 6.07268 17.3162L5.46415 17.416C6.29071 17.2453 6.81834 17.9149 7.5354 18.1609L6.27569 18.6987L6.65797 18.9077L5.20445 20.1441L5.21027 20.1575C5.02083 20.1426 4.82848 20.1441 4.64194 20.1076C4.06054 20.0009 3.48155 19.8811 2.9016 19.7664C2.79986 19.4268 2.69779 19.0875 2.5954 18.7486ZM3.83621 17.9778L3.75385 18.08C3.92439 18.2093 4.16616 18.4847 4.25289 18.4403C4.48981 18.3185 4.66181 18.0621 4.85949 17.859L4.77179 17.7792C4.60803 17.9513 4.44378 18.1229 4.26548 18.3095L3.83621 17.9778Z" fill="#FF0037"/>
<path d="M2.98502 40.7083H0V25.9511H2.98502V27.1982C3.45041 26.5961 4.47753 25.6377 6.4345 25.6377C7.36528 25.6377 8.85453 25.8383 10.0552 26.9306C10.838 27.6439 11.6455 28.8478 11.6455 30.765C11.6455 32.9493 10.5937 34.1312 9.98217 34.6663C9.17472 35.3575 7.95121 35.9148 6.38563 35.9148C5.65171 35.9148 4.1592 35.8032 2.98502 34.3542V40.7083ZM3.69428 28.693C3.03389 29.2057 2.69136 29.8745 2.69136 30.7663C2.69136 31.6581 3.08275 32.3934 3.66868 32.8615C4.06007 33.1736 4.69626 33.5082 5.62332 33.5082C6.60064 33.5082 7.23823 33.1516 7.62962 32.817C8.26581 32.2818 8.5604 31.4795 8.5604 30.7663C8.5604 30.053 8.24208 29.2503 7.65476 28.7376C7.11676 28.2919 6.33398 28.0464 5.62425 28.0464C4.84659 28.0464 4.23273 28.2469 3.69428 28.693Z" fill="black"/>
<path d="M14.7186 25.6377V30.8941C14.7186 31.3875 14.7577 32.0528 15.2276 32.5246C15.5209 32.8038 15.9908 32.9968 16.4409 32.9968C16.8911 32.9968 17.3609 32.8038 17.6543 32.5246C18.1242 32.0528 18.1633 31.3875 18.1633 30.8941V25.6377H20.5509V31.3235C20.5509 32.1601 20.4534 33.2756 19.5136 34.1767C18.7318 34.9277 17.4782 35.2281 16.4409 35.2281C15.4037 35.2281 14.1508 34.9277 13.3682 34.1767C12.4285 33.2756 12.3306 32.1601 12.3306 31.3235V25.6377H14.7186Z" fill="black"/>
<path d="M22.6068 25.9381H25.3349V26.9893C26.3634 25.745 27.6377 25.6377 28.2192 25.6377C30.254 25.6377 31.0366 26.862 31.2816 27.3325C31.7495 26.6029 32.7129 25.6377 34.3896 25.6377C35.8876 25.6377 36.6256 26.3025 37.0058 26.7747C37.6319 27.5684 37.6766 28.3622 37.6766 29.3918V35.2277H34.9485V30.1644C34.9485 29.0702 34.7026 28.5768 34.5014 28.341C34.1437 27.9116 33.6507 27.8688 33.3836 27.8688C32.6457 27.8688 32.1761 28.1908 31.8852 28.685C31.5274 29.2425 31.5053 29.9934 31.5053 30.4868V35.2281H28.7772V30.1644C28.7772 29.0702 28.5314 28.5768 28.3302 28.341C27.9725 27.9116 27.4795 27.8688 27.2124 27.8688C26.4744 27.8688 26.0048 28.1908 25.7139 28.685C25.3562 29.2425 25.3341 29.9934 25.3341 30.4868V35.2281H22.606L22.6068 25.9381Z" fill="black"/>
<path d="M46.5132 25.929H49.3223V34.9368H46.5132V33.7718C45.5 35.0825 44.1644 35.2281 43.4504 35.2281C40.3882 35.2281 38.3618 33.0646 38.3618 30.4226C38.3618 27.7597 40.3649 25.6377 43.3116 25.6377C44.0716 25.6377 45.5683 25.7624 46.5123 27.094L46.5132 25.929ZM41.2629 30.4226C41.2629 31.858 42.4145 32.9815 44.026 32.9815C45.6375 32.9815 46.7896 31.858 46.7896 30.4226C46.7896 28.9873 45.638 27.8843 44.026 27.8843C42.4141 27.8843 41.2629 28.9869 41.2629 30.4226Z" fill="black"/>
</svg>
